<svg xmlns="http://www.w3.org/2000/svg" viewBox="0 0 256 256">
  <rect width="256" height="256" fill="#0a1628"/>
  <circle cx="80" cy="100" r="3" fill="#0066FF" opacity="0.6"/>
  <circle cx="176" cy="100" r="3" fill="#0066FF" opacity="0.6"/>
  <circle cx="128" cy="128" r="3" fill="#0066FF" opacity="0.6"/>
  <circle cx="80" cy="156" r="3" fill="#0066FF" opacity="0.6"/>
  <circle cx="176" cy="156" r="3" fill="#0066FF" opacity="0.6"/>
  <line x1="80" y1="100" x2="128" y2="128" stroke="#0066FF" stroke-width="1" opacity="0.3"/>
  <line x1="176" y1="100" x2="128" y2="128" stroke="#0066FF" stroke-width="1" opacity="0.3"/>
  <line x1="128" y1="128" x2="80" y2="156" stroke="#0066FF" stroke-width="1" opacity="0.3"/>
  <line x1="128" y1="128" x2="176" y2="156" stroke="#0066FF" stroke-width="1" opacity="0.3"/>
  <path d="M 60 180 L 60 76 L 78 76 L 110 120 L 142 76 L 160 76 L 160 180 L 144 180 L 144 108 L 118 144 L 102 144 L 76 108 L 76 180 Z" fill="#0066FF"/>
  <path d="M 176 180 L 176 76 L 192 76 L 192 120 L 216 120 L 240 76 L 258 76 L 230 126 L 260 180 L 242 180 L 216 132 L 192 132 L 192 180 Z" fill="#0066FF" transform="translate(-10 0)"/>
</svg>